<?xml version="1.0" encoding="UTF-8"?>
<svg width="36px" height="36px" viewBox="0 0 36 36" version="1.1" xmlns="http://www.w3.org/2000/svg" xmlns:xlink="http://www.w3.org/1999/xlink">
    <title>编组 9</title>
    <defs>
        <filter color-interpolation-filters="auto" id="filter-1">
            <feColorMatrix in="SourceGraphic" type="matrix" values="0 0 0 0 1.000000 0 0 0 0 1.000000 0 0 0 0 1.000000 0 0 0 1.000000 0"></feColorMatrix>
        </filter>
    </defs>
    <g id="页面-1" stroke="none" stroke-width="1" fill="none" fill-rule="evenodd">
        <g id="Apple-TV备份-70" transform="translate(-1652.000000, -468.000000)">
            <g id="编组-9" transform="translate(1652.000000, 468.000000)">
                <rect id="矩形备份-32" stroke-opacity="0.5" stroke="#EBF2FC" fill="#2879FB" x="0.5" y="0.5" width="35" height="35" rx="2"></rect>
                <g filter="url(#filter-1)" id="编组-8备份-4">
                    <g transform="translate(8.000000, 9.000000)">
                        <path d="M15.4152373,0 C15.7174561,9.43695103e-16 16.0157451,0.0684911116 16.2876925,0.200327268 L16.2876925,0.200327268 L18.8724552,1.45338266 C19.5620667,1.78769629 20,2.48668106 20,3.25305539 L20,3.25305539 L20,8 L18,8 L18,6 C18,4.9456382 17.1841222,4.08183488 16.1492623,4.00548574 L16,4 L11,4 L11,0 Z" id="形状结合备份-2" fill="#D8D8D8" opacity="0.702319191"></path>
                        <path d="M4.41523732,0 C4.71745606,9.43695103e-16 5.01574509,0.0684911116 5.28769251,0.200327268 L5.28769251,0.200327268 L7.87245519,1.45338266 C8.56206669,1.78769629 9,2.48668106 9,3.25305539 L9,3.25305539 L9,8 L7,8 L7,6 C7,4.9456382 6.18412221,4.08183488 5.14926234,4.00548574 L5,4 L0,4 L0,0 Z" id="形状结合备份-4" fill="#D8D8D8" opacity="0.702319191" transform="translate(4.500000, 4.000000) scale(-1, 1) translate(-4.500000, -4.000000) "></path>
                        <path d="M2,13 C2,13.5522847 2.44771525,14 3,14 L3,14 L17,14 C17.5522847,14 18,13.5522847 18,13 L18,13 L18,10 L20,10 L20,16 C20,17.1045695 19.1045695,18 18,18 L2,18 C0.8954305,18 1.3527075e-16,17.1045695 0,16 L0,10 L2,10 Z" id="形状结合备份-3" fill="#D8D8D8"></path>
                        <g id="编组-8备份" transform="translate(6.000000, 9.000000) scale(-1, 1) translate(-6.000000, -9.000000) translate(3.000000, 6.000000)" fill="#D8D8D8">
                            <circle id="椭圆形备份-11" cx="1" cy="1" r="1"></circle>
                            <circle id="椭圆形备份-12" cx="5" cy="5" r="1"></circle>
                            <rect id="矩形备份-11" transform="translate(2.853553, 2.853553) rotate(-45.000000) translate(-2.853553, -2.853553) " x="2.35355339" y="-0.146446609" width="1" height="6"></rect>
                        </g>
                        <g id="编组-8备份-2" transform="translate(11.000000, 6.000000)" fill="#D8D8D8">
                            <circle id="椭圆形备份-11" cx="1" cy="1" r="1"></circle>
                            <circle id="椭圆形备份-12" cx="5" cy="5" r="1"></circle>
                            <rect id="矩形备份-11" transform="translate(2.853553, 2.853553) rotate(-45.000000) translate(-2.853553, -2.853553) " x="2.35355339" y="-0.146446609" width="1" height="6"></rect>
                        </g>
                        <path d="M7,10 L13,10 L13,11 C13,11.5522847 12.5522847,12 12,12 L8,12 C7.44771525,12 7,11.5522847 7,11 L7,10 L7,10 Z" id="矩形" fill="#D8D8D8" transform="translate(10.000000, 11.000000) scale(1, -1) translate(-10.000000, -11.000000) "></path>
                    </g>
                </g>
            </g>
        </g>
    </g>
</svg>